
<svg xmlns="http://www.w3.org/2000/svg" version="1.1" xmlns:xlink="http://www.w3.org/1999/xlink" xmlns:svgjs="http://svgjs.dev/svgjs" width="2000" height="363" viewBox="0 0 2000 363"><g transform="matrix(1,0,0,1,3.4215417405705466,-0.7765138539655254)"><svg viewBox="0 0 396 72" data-background-color="#ffffff" preserveAspectRatio="xMidYMid meet" height="363" width="2000" xmlns="http://www.w3.org/2000/svg" xmlns:xlink="http://www.w3.org/1999/xlink"><g id="tight-bounds" transform="matrix(1,0,0,1,0.23965808384426168,0.1540192768196107)"><svg viewBox="0 0 395.5199999999999 71.69196144636078" height="71.69196144636078" width="395.5199999999999"><g><svg viewBox="0 0 507.0535288751065 91.9085306516872" height="71.69196144636078" width="395.5199999999999"><g transform="matrix(1,0,0,1,111.53352887510653,4.389264126636299)"><svg viewBox="0 0 395.52 83.1300023984146" height="83.1300023984146" width="395.52"><g id="textblocktransform"><svg viewBox="0 0 395.52 83.1300023984146" height="83.1300023984146" width="395.52" id="textblock"><g><svg viewBox="0 0 395.52 83.1300023984146" height="83.1300023984146" width="395.52"><g transform="matrix(1,0,0,1,0,0)"><svg width="395.52" viewBox="2.98 -37.74 191.94857454716657 40.34666666666667" height="83.1300023984146" data-palette-color="#6b64e7"><g transform="matrix(1,0,0,1,0,0)"><g><svg width="12.201094547166594" viewBox="1.78 -36.36 74.21 36.36" height="5.9779525436835375" data-palette-color="#6b64e7" id="scriptelement" x="180.20054727358328" y="-32.10149627184177"><path d="M12.91-30.02L1.78-30.02 1.78-36.36 31.64-36.36 31.64-30.02 20.51-30.02 20.51 0 12.91 0 12.91-30.02ZM36.57 0L36.57-36.36 46.06-36.36 56.07-11.93 56.5-11.93 66.51-36.36 75.99-36.36 75.99 0 68.53 0 68.53-23.67 68.23-23.67 58.82-0.18 53.74-0.18 44.33-23.76 44.03-23.76 44.03 0 36.57 0Z" opacity="1" transform="matrix(1,0,0,1,0,0)" fill="#6b64e7" class="undefined-123" data-fill-palette-color="primary" id="tk-123"></path></svg></g></g><path d="M177.674-29.113C177.674-33.877 181.536-37.74 186.301-37.74 191.066-37.74 194.929-33.877 194.929-29.113 194.929-24.348 191.066-20.485 186.301-20.485 181.536-20.485 177.674-24.348 177.674-29.113ZM186.301-20.885C190.845-20.885 194.529-24.569 194.529-29.113 194.529-33.656 190.845-37.34 186.301-37.34 181.757-37.34 178.074-33.656 178.074-29.113 178.074-24.569 181.757-20.885 186.301-20.885Z" fill="#6b64e7" id="scriptcircle" data-fill-palette-color="primary"></path><path d="M19.04-35.25L19.04-35.25Q19.43-34.67 19.7-34.06 19.97-33.45 19.97-33.2L19.97-33.2Q19.97-32.86 19.87-32.64 19.78-32.42 19.58-32.13L19.58-32.13Q17.72-31.3 15.84-30.42 13.96-29.54 12.01-28.76L12.01-28.76Q11.52-28.56 11.08-28.37 10.64-28.17 10.11-27.98L10.11-27.98Q10.01-27.88 9.69-27.81 9.38-27.73 9.13-27.73L9.13-27.73Q9.23-26.76 9.25-25.73 9.28-24.71 9.33-23.68L9.33-23.68Q9.33-23.39 9.42-23.12 9.52-22.85 9.52-22.56L9.52-22.56Q9.62-21.63 9.62-20.75 9.62-19.87 9.72-18.95L9.72-18.95Q11.52-19.73 13.31-20.53 15.09-21.34 16.89-22.12L16.89-22.12Q17.19-22.07 17.53-22.02 17.87-21.97 18.16-21.83L18.16-21.83Q18.26-21.73 18.36-21.58 18.46-21.44 18.6-21.34L18.6-21.34Q18.6-21.09 18.92-20.63 19.24-20.17 19.24-19.63L19.24-19.63Q19.24-19.53 19.38-19.31 19.53-19.09 19.58-18.99L19.58-18.99Q19.58-18.51 19.53-18.46L19.53-18.46Q19.87-18.21 20-17.82 20.12-17.43 20.12-17.04L20.12-17.04Q19.24-16.06 18.38-15.72 17.53-15.38 16.65-14.99L16.65-14.99Q16.41-14.84 16.11-14.7 15.82-14.55 15.53-14.4L15.53-14.4Q15.14-14.26 14.77-14.14 14.4-14.01 14.01-13.82L14.01-13.82Q13.43-13.48 12.7-13.04 11.96-12.6 11.38-12.5L11.38-12.5Q10.99-12.4 10.72-12.38 10.45-12.35 10.11-12.11L10.11-12.11Q10.06-11.52 10.08-10.96 10.11-10.4 10.11-9.86L10.11-9.86Q10.11-9.28 10.03-8.72 9.96-8.15 9.96-7.57L9.96-7.57Q9.96-6.59 9.86-5.64 9.77-4.69 9.77-3.76L9.77-3.76Q9.77-3.17 9.81-2.61 9.86-2.05 9.86-1.51L9.86-1.51Q9.86-1.22 9.77-0.98 9.67-0.73 9.57-0.49L9.57-0.49Q8.89-0.39 8.74-0.51 8.59-0.63 8.4-0.73L8.4-0.73Q8.15-0.73 8.08-0.54 8.01-0.34 7.76-0.24L7.76-0.24Q7.57-0.29 7.35-0.27 7.13-0.24 6.98-0.34L6.98-0.34Q6.59-0.2 6.27 0 5.96 0.2 5.57 0.29L5.57 0.29Q4.83 0.2 4.66 0.22 4.49 0.24 4.3 0.29L4.3 0.29Q3.96-0.05 3.98-0.56 4-1.07 3.71-1.46L3.71-1.46Q3.71-1.95 3.61-2.08 3.52-2.2 3.52-2.29L3.52-2.29Q3.52-2.44 3.54-2.61 3.56-2.78 3.56-2.98L3.56-2.98Q3.56-3.42 3.52-3.66L3.52-3.66Q3.56-3.96 3.61-4.57 3.66-5.18 3.71-5.83 3.76-6.49 3.76-7.13 3.76-7.76 3.76-8.15L3.76-8.15Q3.76-8.4 3.86-8.57 3.96-8.74 3.96-8.98L3.96-8.98Q3.96-9.38 3.93-9.69 3.91-10.01 3.91-10.35L3.91-10.35Q3.91-11.04 3.93-11.72 3.96-12.4 3.96-13.09L3.96-13.09Q3.96-15.19 3.74-17.21 3.52-19.24 3.52-21.29L3.52-21.29Q3.52-22.41 3.42-23.75 3.32-25.1 3.17-26.22L3.17-26.22Q3.17-26.46 3.1-26.64 3.03-26.81 3.03-27L3.03-27Q2.98-27.59 2.98-28.2 2.98-28.81 2.98-29.44L2.98-29.44Q2.98-29.83 2.98-30.54 2.98-31.25 2.98-32.01 2.98-32.76 3-33.45 3.03-34.13 3.08-34.42L3.08-34.42Q3.08-34.47 3.37-34.59 3.66-34.72 3.76-34.72L3.76-34.72Q4-34.72 4.15-34.57 4.3-34.42 4.49-34.28L4.49-34.28Q4.69-34.42 4.91-34.42 5.13-34.42 5.37-34.42L5.37-34.42Q6.1-34.57 6.27-34.4 6.45-34.23 6.54-34.23L6.54-34.23Q6.69-34.23 6.79-34.38 6.88-34.52 7.03-34.52L7.03-34.52Q7.42-34.52 7.5-34.33 7.57-34.13 7.76-34.13L7.76-34.13Q7.96-34.13 8.06-34.28 8.15-34.42 8.25-34.42L8.25-34.42Q8.4-34.42 8.54-34.35 8.69-34.28 8.84-34.28L8.84-34.28Q9.08-34.28 9.38-34.45 9.67-34.62 9.91-34.72L9.91-34.72Q10.3-34.81 10.62-34.96 10.94-35.11 11.28-35.21L11.28-35.21Q12.01-35.64 12.38-35.77 12.74-35.89 13.13-36.08L13.13-36.08Q13.96-36.47 14.72-36.84 15.48-37.21 16.31-37.55L16.31-37.55Q16.75-37.55 16.89-37.74L16.89-37.74Q17.24-37.6 17.77-37.7L17.77-37.7Q18.36-37.16 18.53-36.87 18.7-36.57 18.95-36.33L18.95-36.33Q19.24-35.94 19.34-35.94L19.34-35.94Q19.34-35.79 19.19-35.6 19.04-35.4 19.04-35.25ZM46.29-4.69L46.29-4.69Q46.24-3.96 46.6-3.59 46.97-3.22 47.21-2.69L47.21-2.69Q47.12-2 47.36-1.61L47.36-1.61Q47.21-1.32 47.07-0.95 46.92-0.59 46.63-0.34L46.63-0.34Q45.85 0 45.7 0.24 45.55 0.49 45.11 0.49L45.11 0.49Q44.87 0.73 44.58 1 44.28 1.27 44.04 1.51L44.04 1.51Q43.8 1.42 43.7 1.27 43.6 1.12 43.41 0.88L43.41 0.88Q42.92 0.73 42.53 0.37 42.14 0 41.84-0.46 41.55-0.93 41.28-1.44 41.01-1.95 40.82-2.39L40.82-2.39Q40.13-3.66 39.43-4.96 38.72-6.25 37.99-7.52L37.99-7.52Q37.6-8.15 37.23-8.81 36.86-9.47 36.47-10.16L36.47-10.16Q36.37-10.25 36.28-10.38 36.18-10.5 36.08-10.64L36.08-10.64Q35.74-11.13 35.57-11.74 35.4-12.35 34.86-12.74L34.86-12.74Q33.93-12.84 33.18-12.48 32.42-12.11 31.83-11.52L31.83-11.52Q31.88-11.18 31.88-10.89 31.88-10.6 31.88-10.3L31.88-10.3Q31.88-9.18 31.78-8.15 31.69-7.13 31.69-6.01L31.69-6.01Q31.69-5.52 31.74-5 31.78-4.49 31.88-4L31.88-4Q31.74-3.47 31.74-2.83L31.74-2.83Q31.74-2.49 31.81-2.2 31.88-1.9 31.88-1.56L31.88-1.56Q31.88-1.07 31.56-0.9 31.25-0.73 31.35-0.29L31.35-0.29Q30.76-0.05 30.22 0.2 29.68 0.44 29.1 0.54L29.1 0.54Q28.85 0.59 28.61 0.56 28.37 0.54 28.17 0.63L28.17 0.63Q27.93 0.73 27.78 1 27.63 1.27 27.39 1.27L27.39 1.27Q27.1 1.27 27.05 1.05 27 0.83 26.85 0.68L26.85 0.68Q26.61 0.59 26.46 0.59 26.32 0.59 26.17 0.44L26.17 0.44Q26.22 0 25.97-0.22 25.73-0.44 25.73-1.12L25.73-1.12Q25.73-1.66 25.8-2.15 25.88-2.64 25.88-3.17L25.88-3.17Q25.88-3.61 25.75-3.98 25.63-4.35 25.53-4.79L25.53-4.79Q25.49-4.98 25.53-5.18 25.58-5.37 25.58-5.57L25.58-5.57Q25.58-6.45 25.51-7.35 25.44-8.25 25.44-9.13L25.44-9.13Q25.44-9.47 25.44-9.77 25.44-10.06 25.49-10.35L25.49-10.35Q25.58-10.64 25.66-10.84 25.73-11.04 25.73-11.33L25.73-11.33Q25.73-12.26 25.53-13.16 25.34-14.06 25.34-14.94L25.34-14.94Q25.34-15.43 25.36-15.94 25.39-16.46 25.39-16.94L25.39-16.94Q25.39-18.36 25.34-19.73 25.29-21.09 25.29-22.46L25.29-22.46Q25.29-23.44 25.34-24.39 25.39-25.34 25.39-26.32L25.39-26.32Q25.39-27.54 25.29-28.74 25.19-29.93 25.19-31.2L25.19-31.2Q25.19-31.64 25.14-31.79 25.1-31.93 25-31.96 24.9-31.98 24.78-32.01 24.66-32.03 24.56-32.18L24.56-32.18Q24.56-32.47 24.8-32.59 25.05-32.71 25.05-33.4L25.05-33.4Q25.05-33.79 24.97-34.18 24.9-34.57 24.9-34.96L24.9-34.96Q24.9-35.55 25.14-36.13 25.39-36.72 25.58-37.26L25.58-37.26Q26.17-37.3 26.39-37.26 26.61-37.21 26.85-37.3L26.85-37.3Q27-36.77 27.49-36.74 27.98-36.72 28.37-36.62L28.37-36.62Q28.81-36.57 29.22-36.4 29.64-36.23 30.03-36.23L30.03-36.23Q30.12-35.94 30.44-35.82 30.76-35.69 31.1-35.6L31.1-35.6Q31.49-35.64 31.71-35.94 31.93-36.23 32.32-36.23L32.32-36.23Q32.61-36.23 33.01-35.82 33.4-35.4 33.59-35.16L33.59-35.16Q33.79-35.01 34.32-34.52 34.86-34.03 35.5-33.52 36.13-33.01 36.67-32.54 37.2-32.08 37.35-32.03L37.35-32.03Q39.35-30.03 41.09-28.39 42.82-26.76 44.87-25.44L44.87-25.44Q44.92-25.29 44.99-25.2 45.07-25.1 45.16-24.95L45.16-24.95Q45.16-24.56 45.02-24.37 44.87-24.17 44.87-23.88L44.87-23.88Q44.87-23.73 44.94-23.58 45.02-23.44 45.02-23.29L45.02-23.29Q45.07-23.1 45.04-22.92 45.02-22.75 45.02-22.56L45.02-22.56Q45.02-22.07 45.33-21.68 45.65-21.29 45.65-20.8L45.65-20.8Q45.55-20.36 45.26-20.26 44.97-20.17 44.77-20.02L44.77-20.02Q44.68-19.92 44.6-19.78 44.53-19.63 44.43-19.53L44.43-19.53Q43.36-19.04 42.87-18.63 42.38-18.21 41.84-17.82L41.84-17.82Q41.7-17.72 41.35-17.5 41.01-17.29 40.67-17.07 40.33-16.85 40.06-16.6 39.79-16.36 39.79-16.21L39.79-16.21Q39.79-15.87 40.21-15.26 40.62-14.65 40.82-14.31L40.82-14.31Q41.35-13.43 41.79-12.57 42.23-11.72 42.77-10.89L42.77-10.89Q43.75-9.38 44.6-7.81 45.46-6.25 46.29-4.69ZM38.33-22.85L38.33-22.85Q37.2-24.27 35.91-25.42 34.62-26.56 33.44-27.83L33.44-27.83 32.91-27.93Q32.61-28.42 32.25-28.78 31.88-29.15 31.49-29.54L31.49-29.54Q31.54-29 31.54-28.52 31.54-28.03 31.54-27.49L31.54-27.49Q31.54-25.93 31.47-24.44 31.39-22.95 31.39-21.44L31.39-21.44Q31.39-19.92 31.54-18.55L31.54-18.55Q32.57-18.55 33.4-19.14L33.4-19.14Q33.74-19.38 34.03-19.65 34.32-19.92 34.67-20.17L34.67-20.17Q35.06-20.41 35.57-20.75 36.08-21.09 36.59-21.44 37.11-21.78 37.57-22.14 38.03-22.51 38.33-22.85ZM57.81-33.2L57.81-33.2Q57.81-32.76 57.51-32.54 57.22-32.32 56.98-31.98L56.98-31.98Q56.49-31.54 56.12-31.08 55.76-30.62 55.27-30.18L55.27-30.18Q55.07-29.98 54.73-29.66 54.39-29.35 54.02-29.03 53.66-28.71 53.29-28.47 52.92-28.22 52.68-28.22L52.68-28.22Q52.29-28.22 51.68-28.49 51.07-28.76 50.63-28.86L50.63-28.86Q50.29-28.91 50.02-28.93 49.75-28.96 49.51-29.2L49.51-29.2Q48.63-29.39 48.38-29.81 48.14-30.22 47.85-30.66L47.85-30.66Q47.85-30.86 47.99-30.91 48.14-30.96 48.24-31.1L48.24-31.1Q48.73-31.74 49.07-32.15 49.41-32.57 49.85-33.01L49.85-33.01Q50.68-33.74 51.44-34.52 52.19-35.3 53.02-35.99L53.02-35.99Q53.41-36.04 53.61-36.28 53.8-36.52 54.19-36.52L54.19-36.52Q54.58-36.52 54.85-36.28 55.12-36.04 55.34-35.72 55.56-35.4 55.78-35.08 56-34.77 56.29-34.62L56.29-34.62Q56.64-34.38 57.22-33.98 57.81-33.59 57.81-33.2ZM51.12-24.12L51.12-24.12Q51.46-23.93 51.63-23.61 51.8-23.29 52.14-23.14L52.14-23.14Q52.44-23 52.78-23 53.12-23 53.36-22.9L53.36-22.9Q53.56-22.8 53.66-22.66 53.75-22.51 53.85-22.36L53.85-22.36Q54.15-22.12 54.76-21.92 55.37-21.73 55.56-21.48L55.56-21.48Q55.9-21.04 56.07-20.36 56.25-19.68 56.34-18.92 56.44-18.16 56.49-17.41 56.54-16.65 56.64-16.11L56.64-16.11Q56.73-14.99 56.88-13.89 57.03-12.79 57.03-11.67L57.03-11.67Q57.03-10.55 56.93-9.38 56.83-8.2 56.83-7.08L56.83-7.08Q56.83-6.49 56.81-5.62 56.78-4.74 56.39-4.25L56.39-4.25Q56.34-4.05 56.34-3.56L56.34-3.56 56.34-2Q56.34-1.71 56.39-1.42 56.44-1.12 56.44-0.78L56.44-0.78Q56.44-0.24 56.15 0L56.15 0Q56-0.05 55.83-0.05 55.66-0.05 55.51-0.05L55.51-0.05Q54.98-0.05 54.73 0.15L54.73 0.15Q54.19 0.1 53.71 0.05 53.22 0 52.68 0L52.68 0Q51.85 0 50.87 0.24L50.87 0.24Q50.68-0.24 50.7-0.78 50.73-1.32 50.48-1.76L50.48-1.76Q50.43-1.9 50.41-2.03 50.39-2.15 50.39-2.29L50.39-2.29Q50.53-2.88 50.53-3.1 50.53-3.32 50.53-3.56L50.53-3.56Q50.53-4.25 50.48-4.96 50.43-5.66 50.53-6.35L50.53-6.35Q50.53-6.59 50.61-6.79 50.68-6.98 50.68-7.23L50.68-7.23Q50.68-7.47 50.58-7.57 50.48-7.67 50.48-7.81L50.48-7.81Q50.48-7.96 50.51-8.3 50.53-8.64 50.63-8.74L50.63-8.74Q50.63-9.13 50.65-9.5 50.68-9.86 50.68-10.21L50.68-10.21Q50.68-10.99 50.63-11.77 50.58-12.55 50.58-13.28L50.58-13.28Q50.58-13.62 50.53-13.72 50.48-13.82 50.43-13.87 50.39-13.92 50.29-13.94 50.19-13.96 50.14-14.11L50.14-14.11Q50.34-16.26 50-18.41 49.65-20.56 49.65-22.75L49.65-22.75Q49.65-23.1 49.75-23.27 49.85-23.44 50-23.54 50.14-23.63 50.26-23.75 50.39-23.88 50.43-24.12L50.43-24.12Q50.83-24.02 51.12-24.12ZM78.8-36.43L78.8-36.43Q79.58-36.52 80-36.3 80.41-36.08 80.85-36.04L80.85-36.04Q81.1-35.99 81.36-36.01 81.63-36.04 81.93-36.04L81.93-36.04Q82.56-36.04 82.93-35.89 83.29-35.74 83.68-35.25L83.68-35.25Q83.78-35.16 83.95-34.99 84.12-34.81 84.12-34.67L84.12-34.67Q84.12-34.28 83.93-33.98 83.73-33.69 83.73-33.15L83.73-33.15Q83.73-32.32 83.93-31.52 84.12-30.71 84.17-29.88L84.17-29.88Q84.42-26.86 84.44-23.8 84.47-20.75 84.47-17.77L84.47-17.77Q84.47-17.38 84.44-17.07 84.42-16.75 84.22-16.5L84.22-16.5 84.22-15.87Q84.17-14.6 84.27-13.31 84.37-12.01 84.37-10.74L84.37-10.74Q84.37-9.62 84.25-8.5 84.12-7.37 84.12-6.2L84.12-6.2Q84.12-5.13 84.27-4.1 84.42-3.08 84.42-2L84.42-2Q84.17-1.56 84.12-1.32 84.07-1.07 83.93-0.88L83.93-0.88Q83.78-0.78 83.61-0.83 83.44-0.88 83.34-0.73L83.34-0.73Q83.1-0.44 83-0.05 82.9 0.34 82.51 0.59L82.51 0.59Q82.41 1.27 82 1.64 81.58 2 81.39 2.59L81.39 2.59Q80.8 2.64 80.58 2.54 80.36 2.44 80.12 2.34L80.12 2.34Q80.07 1.51 80.14 1.15 80.22 0.78 80.22 0.39L80.22 0.39Q80.22-0.1 79.97-0.34 79.73-0.59 79.63-0.98L79.63-0.98Q79.09-1.32 78.9-1.44 78.7-1.56 78.56-1.76L78.56-1.76Q78.26-2.15 78.07-2.59 77.87-3.03 77.63-3.42L77.63-3.42Q76.95-4.54 76.24-5.71 75.53-6.88 74.7-8.01L74.7-8.01Q74.55-8.25 74.36-8.45 74.16-8.64 74.02-8.89L74.02-8.89Q73.19-10.21 72.45-11.57 71.72-12.94 70.74-14.16L70.74-14.16Q70.35-14.65 70.16-15.26 69.96-15.87 69.57-16.31L69.57-16.31Q69.52-16.06 69.52-15.77 69.52-15.48 69.52-15.23L69.52-15.23Q69.52-13.57 69.6-11.94 69.67-10.3 69.67-8.64L69.67-8.64Q69.67-8.3 69.6-8.03 69.52-7.76 69.52-7.42L69.52-7.42Q69.52-6.93 69.57-6.49 69.62-6.05 69.62-5.62L69.62-5.62Q69.62-5.08 69.6-4.59 69.57-4.1 69.52-3.61L69.52-3.61Q69.43-2.98 69.28-2.42 69.13-1.86 69.13-1.27L69.13-1.27Q69.13-0.93 69.21-0.63 69.28-0.34 69.28-0.1L69.28-0.1Q68.94 0.44 68.43 0.44 67.91 0.44 67.57 0.83L67.57 0.83Q67.28 0.78 67.11 0.88 66.94 0.98 66.79 0.98L66.79 0.98Q66.59 0.98 66.47 0.93 66.35 0.88 66.2 0.88L66.2 0.88Q65.96 0.88 65.72 1.12 65.47 1.37 65.23 1.37L65.23 1.37Q65.08 1.37 64.71 1.17 64.35 0.98 63.93 0.71 63.52 0.44 63.18 0.17 62.83-0.1 62.83-0.24L62.83-0.24Q62.79-0.49 62.79-0.93L62.79-0.93Q62.79-1.51 62.86-2.08 62.93-2.64 63.03-3.22L63.03-3.22Q63.18-4.88 63.18-6.52 63.18-8.15 63.18-9.81L63.18-9.81Q63.18-10.5 63.2-11.18 63.22-11.87 63.22-12.55L63.22-12.55Q63.22-14.16 63.1-15.8 62.98-17.43 62.98-19.04L62.98-19.04Q62.98-20.17 63.08-21.26 63.18-22.36 63.18-23.44L63.18-23.44Q63.18-24.27 63.13-25.05 63.08-25.83 63.08-26.66L63.08-26.66Q63.03-27.2 63.08-27.81 63.13-28.42 63.13-28.96L63.13-28.96Q63.13-29.59 62.96-30.15 62.79-30.71 62.79-31.2L62.79-31.2Q62.79-31.49 62.91-31.76 63.03-32.03 63.03-32.32L63.03-32.32Q63.03-32.71 62.91-33.11 62.79-33.5 62.79-33.89L62.79-33.89Q62.79-34.28 62.88-34.62 62.98-34.96 62.98-35.35L62.98-35.35Q63.66-35.69 64.2-35.69L64.2-35.69Q64.74-35.69 64.98-35.3L64.98-35.3Q64.98-34.42 65.08-33.96 65.18-33.5 65.23-33.01L65.23-33.01Q65.23-32.71 65.2-32.32 65.18-31.93 65.23-31.57 65.28-31.2 65.45-30.96 65.62-30.71 66.06-30.71L66.06-30.71Q66.15-30.47 66.3-30.27 66.45-30.08 66.5-29.79L66.5-29.79Q66.79-29.98 66.84-30.32 66.89-30.66 66.84-30.96L66.84-30.96Q67.08-30.86 67.28-30.88 67.47-30.91 67.67-30.81L67.67-30.81Q67.77-30.13 67.91-29.61 68.06-29.1 68.01-28.42L68.01-28.42Q68.99-27.69 69.69-26.34 70.4-25 71.04-23.93L71.04-23.93Q71.38-23.39 71.84-22.92 72.31-22.46 72.55-21.83L72.55-21.83Q72.94-21.58 73.19-21.19 73.43-20.8 73.63-20.41L73.63-20.41Q74.6-18.7 75.77-17.09 76.95-15.48 78.22-13.92L78.22-13.92Q78.26-14.26 78.26-14.58 78.26-14.89 78.26-15.23L78.26-15.23 78.22-19.63Q78.22-20.02 78.19-20.36 78.17-20.7 78.12-21.09L78.12-21.09Q78.02-22.36 78.07-23.58 78.12-24.8 78.07-26.07L78.07-26.07Q77.97-27.39 77.95-28.76 77.92-30.13 77.82-31.49L77.82-31.49Q77.78-32.32 77.73-33.15 77.68-33.98 77.68-34.81L77.68-34.81Q77.68-35.84 77.87-36.67L77.87-36.67Q77.97-36.77 78.09-36.84 78.22-36.91 78.41-36.91L78.41-36.91Q78.7-36.91 78.8-36.43ZM115.62-18.7L115.81-18.7Q115.91-18.36 116.2-17.97 116.49-17.58 116.49-17.38L116.49-17.38Q116.1-16.46 115.91-15.94 115.71-15.43 115.27-15.04L115.27-15.04Q115.27-14.89 114.98-14.4 114.69-13.92 114.32-13.35 113.95-12.79 113.59-12.28 113.22-11.77 113.12-11.57L113.12-11.57Q112.88-11.18 112.73-10.82 112.59-10.45 112.39-10.11L112.39-10.11Q111.95-9.33 111.49-8.64 111.03-7.96 110.63-7.13L110.63-7.13Q110.39-6.88 110.2-6.59 110-6.3 109.76-6.05L109.76-6.05Q109.17-4.98 108.41-4.05 107.66-3.13 107.02-2L107.02-2Q107.56-1.46 107.56-0.63L107.56-0.63Q107.56-0.2 107.31-0.17 107.07-0.15 106.87-0.05L106.87-0.05Q106.39 0.29 106 0.34 105.61 0.39 105.36 0.39L105.36 0.39Q104.82 0.39 104.19 0.37 103.55 0.34 103.12 0.44L103.12 0.44Q102.97 0.49 102.77 0.61 102.58 0.73 102.48 0.73L102.48 0.73Q102.09 0.73 101.92 0.61 101.75 0.49 101.45 0.39L101.45 0.39Q101.06-0.05 100.75-0.54 100.43-1.03 100.09-1.51L100.09-1.51Q99.79-1.86 99.45-2.12 99.11-2.39 98.82-2.78L98.82-2.78Q98.04-3.91 97.23-4.93 96.43-5.96 95.6-6.98L95.6-6.98Q95.2-7.52 94.74-8.01 94.28-8.5 93.89-8.98L93.89-8.98Q93.5-9.52 93.15-10.11 92.81-10.69 92.42-11.23L92.42-11.23Q92.13-11.72 91.59-12.43 91.05-13.13 90.47-13.87 89.88-14.6 89.27-15.26 88.66-15.92 88.22-16.26L88.22-16.26Q88.22-16.6 88.03-16.75 87.83-16.89 87.59-17.09L87.59-17.09Q87.49-17.33 87.34-17.55 87.2-17.77 87.2-18.07L87.2-18.07Q87.2-18.41 87.34-18.7L87.34-18.7Q87.44-18.9 87.47-19.07 87.49-19.24 87.59-19.43L87.59-19.43Q87.83-20.07 88.3-20.56 88.76-21.04 89-21.68L89-21.68Q89.05-21.88 89.05-22.05 89.05-22.22 89.15-22.41L89.15-22.41Q89.3-22.75 89.59-23.02 89.88-23.29 90.13-23.63L90.13-23.63Q90.37-24.07 90.62-24.51 90.86-24.95 91.1-25.39L91.1-25.39Q91.79-26.51 92.62-27.56 93.45-28.61 94.18-29.64L94.18-29.64Q94.86-30.62 95.45-31.57 96.03-32.52 96.72-33.5L96.72-33.5Q97.06-33.98 97.5-34.59 97.94-35.21 98.4-35.79 98.87-36.38 99.36-36.89 99.84-37.4 100.33-37.65L100.33-37.65Q101.16-37.74 101.41-37.38 101.65-37.01 102.09-37.01L102.09-37.01Q102.77-36.87 103.02-36.57 103.26-36.28 103.51-36.04L103.51-36.04Q104.14-36.04 104.58-35.79 105.02-35.55 105.46-35.06L105.46-35.06Q105.26-34.52 104.95-34.08 104.63-33.64 104.38-33.15L104.38-33.15Q103.99-33.01 103.82-32.67 103.65-32.32 103.31-32.08L103.31-32.08Q102.77-31.25 102.24-30.44 101.7-29.64 101.16-28.91L101.16-28.91Q100.92-28.61 100.62-28.44 100.33-28.27 100.09-27.93L100.09-27.93Q99.99-27.78 99.94-27.61 99.89-27.44 99.79-27.29L99.79-27.29Q99.21-26.37 98.48-25.49 97.74-24.61 97.21-23.63L97.21-23.63Q96.96-23.29 96.82-22.92 96.67-22.56 96.47-22.22L96.47-22.22Q96.28-21.88 95.91-21.36 95.55-20.85 95.18-20.31 94.81-19.78 94.55-19.24 94.28-18.7 94.28-18.36L94.28-18.36Q94.33-18.12 94.91-17.38 95.5-16.65 96.23-15.82 96.96-14.99 97.62-14.23 98.28-13.48 98.43-13.33L98.43-13.33Q98.53-13.09 99.16-12.28 99.79-11.47 100.6-10.52 101.41-9.57 102.19-8.69 102.97-7.81 103.26-7.42L103.26-7.42 103.65-6.79Q103.75-6.84 104.16-7.47 104.58-8.11 105.02-8.89 105.46-9.67 105.82-10.35 106.19-11.04 106.29-11.23L106.29-11.23Q106.44-11.38 106.78-12.01 107.12-12.65 107.53-13.38 107.95-14.11 108.27-14.75 108.58-15.38 108.63-15.58L108.63-15.58 108.05-15.58Q107.27-15.58 106.51-15.5 105.75-15.43 104.97-15.19L104.97-15.19Q104.63-15.23 104.38-15.38 104.14-15.53 103.8-15.67L103.8-15.67Q103.65-16.16 103.68-16.36 103.7-16.55 103.65-16.65L103.65-16.65Q103.6-16.85 103.53-16.94 103.46-17.04 103.46-17.24L103.46-17.24Q103.46-17.58 103.36-17.8 103.26-18.02 103.16-18.31L103.16-18.31Q103.16-18.51 103.19-18.7 103.21-18.9 103.12-19.04L103.12-19.04Q103.21-19.92 102.97-20.31L102.97-20.31Q102.97-21 103.16-21.19 103.36-21.39 103.46-21.78L103.46-21.78Q103.9-21.63 104.21-21.85 104.53-22.07 104.87-22.07L104.87-22.07Q105.65-22.07 106.14-22.31L106.14-22.31Q106.58-22.36 107.05-22.36 107.51-22.36 107.95-22.46L107.95-22.46Q108.19-22.51 108.36-22.56 108.53-22.61 108.78-22.66L108.78-22.66Q109.07-22.71 109.41-22.71 109.76-22.71 110.05-22.71L110.05-22.71Q110.83-22.8 111.61-22.83 112.39-22.85 113.17-22.9L113.17-22.9Q113.42-22.8 113.64-22.75 113.86-22.71 114.05-22.61L114.05-22.61Q114.2-22.51 114.3-22.39 114.39-22.27 114.64-22.22L114.64-22.22Q114.88-21.97 114.98-21.73L114.98-21.73Q114.88-21.29 115.03-21.09L115.03-21.09Q114.78-20.85 114.76-20.43 114.74-20.02 114.69-19.68L114.69-19.68Q115.03-19.58 115.27-19.14 115.52-18.7 115.62-18.7L115.62-18.7ZM127.43-33.2L127.43-33.2Q127.43-32.76 127.14-32.54 126.84-32.32 126.6-31.98L126.6-31.98Q126.11-31.54 125.74-31.08 125.38-30.62 124.89-30.18L124.89-30.18Q124.69-29.98 124.35-29.66 124.01-29.35 123.64-29.03 123.28-28.71 122.91-28.47 122.55-28.22 122.3-28.22L122.3-28.22Q121.91-28.22 121.3-28.49 120.69-28.76 120.25-28.86L120.25-28.86Q119.91-28.91 119.64-28.93 119.37-28.96 119.13-29.2L119.13-29.2Q118.25-29.39 118.01-29.81 117.76-30.22 117.47-30.66L117.47-30.66Q117.47-30.86 117.61-30.91 117.76-30.96 117.86-31.1L117.86-31.1Q118.35-31.74 118.69-32.15 119.03-32.57 119.47-33.01L119.47-33.01Q120.3-33.74 121.06-34.52 121.81-35.3 122.64-35.99L122.64-35.99Q123.03-36.04 123.23-36.28 123.43-36.52 123.82-36.52L123.82-36.52Q124.21-36.52 124.47-36.28 124.74-36.04 124.96-35.72 125.18-35.4 125.4-35.08 125.62-34.77 125.92-34.62L125.92-34.62Q126.26-34.38 126.84-33.98 127.43-33.59 127.43-33.2ZM120.74-24.12L120.74-24.12Q121.08-23.93 121.25-23.61 121.42-23.29 121.76-23.14L121.76-23.14Q122.06-23 122.4-23 122.74-23 122.99-22.9L122.99-22.9Q123.18-22.8 123.28-22.66 123.38-22.51 123.47-22.36L123.47-22.36Q123.77-22.12 124.38-21.92 124.99-21.73 125.18-21.48L125.18-21.48Q125.52-21.04 125.7-20.36 125.87-19.68 125.96-18.92 126.06-18.16 126.11-17.41 126.16-16.65 126.26-16.11L126.26-16.11Q126.35-14.99 126.5-13.89 126.65-12.79 126.65-11.67L126.65-11.67Q126.65-10.55 126.55-9.38 126.45-8.2 126.45-7.08L126.45-7.08Q126.45-6.49 126.43-5.62 126.4-4.74 126.01-4.25L126.01-4.25Q125.96-4.05 125.96-3.56L125.96-3.56 125.96-2Q125.96-1.71 126.01-1.42 126.06-1.12 126.06-0.78L126.06-0.78Q126.06-0.24 125.77 0L125.77 0Q125.62-0.05 125.45-0.05 125.28-0.05 125.13-0.05L125.13-0.05Q124.6-0.05 124.35 0.15L124.35 0.15Q123.82 0.1 123.33 0.05 122.84 0 122.3 0L122.3 0Q121.47 0 120.5 0.24L120.5 0.24Q120.3-0.24 120.32-0.78 120.35-1.32 120.1-1.76L120.1-1.76Q120.06-1.9 120.03-2.03 120.01-2.15 120.01-2.29L120.01-2.29Q120.15-2.88 120.15-3.1 120.15-3.32 120.15-3.56L120.15-3.56Q120.15-4.25 120.1-4.96 120.06-5.66 120.15-6.35L120.15-6.35Q120.15-6.59 120.23-6.79 120.3-6.98 120.3-7.23L120.3-7.23Q120.3-7.47 120.2-7.57 120.1-7.67 120.1-7.81L120.1-7.81Q120.1-7.96 120.13-8.3 120.15-8.64 120.25-8.74L120.25-8.74Q120.25-9.13 120.28-9.5 120.3-9.86 120.3-10.21L120.3-10.21Q120.3-10.99 120.25-11.77 120.2-12.55 120.2-13.28L120.2-13.28Q120.2-13.62 120.15-13.72 120.1-13.82 120.06-13.87 120.01-13.92 119.91-13.94 119.81-13.96 119.76-14.11L119.76-14.11Q119.96-16.26 119.62-18.41 119.27-20.56 119.27-22.75L119.27-22.75Q119.27-23.1 119.37-23.27 119.47-23.44 119.62-23.54 119.76-23.63 119.88-23.75 120.01-23.88 120.06-24.12L120.06-24.12Q120.45-24.02 120.74-24.12ZM148.47-35.25L148.47-35.25Q148.86-34.67 149.13-34.06 149.4-33.45 149.4-33.2L149.4-33.2Q149.4-32.86 149.3-32.64 149.2-32.42 149.01-32.13L149.01-32.13Q147.15-31.3 145.27-30.42 143.39-29.54 141.44-28.76L141.44-28.76Q140.95-28.56 140.51-28.37 140.07-28.17 139.54-27.98L139.54-27.98Q139.44-27.88 139.12-27.81 138.8-27.73 138.56-27.73L138.56-27.73Q138.66-26.76 138.68-25.73 138.71-24.71 138.75-23.68L138.75-23.68Q138.75-23.39 138.85-23.12 138.95-22.85 138.95-22.56L138.95-22.56Q139.05-21.63 139.05-20.75 139.05-19.87 139.15-18.95L139.15-18.95Q140.95-19.73 142.73-20.53 144.52-21.34 146.32-22.12L146.32-22.12Q146.62-22.07 146.96-22.02 147.3-21.97 147.59-21.83L147.59-21.83Q147.69-21.73 147.79-21.58 147.89-21.44 148.03-21.34L148.03-21.34Q148.03-21.09 148.35-20.63 148.67-20.17 148.67-19.63L148.67-19.63Q148.67-19.53 148.81-19.31 148.96-19.09 149.01-18.99L149.01-18.99Q149.01-18.51 148.96-18.46L148.96-18.46Q149.3-18.21 149.42-17.82 149.55-17.43 149.55-17.04L149.55-17.04Q148.67-16.06 147.81-15.72 146.96-15.38 146.08-14.99L146.08-14.99Q145.83-14.84 145.54-14.7 145.25-14.55 144.96-14.4L144.96-14.4Q144.57-14.26 144.2-14.14 143.83-14.01 143.44-13.82L143.44-13.82Q142.86-13.48 142.12-13.04 141.39-12.6 140.81-12.5L140.81-12.5Q140.41-12.4 140.15-12.38 139.88-12.35 139.54-12.11L139.54-12.11Q139.49-11.52 139.51-10.96 139.54-10.4 139.54-9.86L139.54-9.86Q139.54-9.28 139.46-8.72 139.39-8.15 139.39-7.57L139.39-7.57Q139.39-6.59 139.29-5.64 139.19-4.69 139.19-3.76L139.19-3.76Q139.19-3.17 139.24-2.61 139.29-2.05 139.29-1.51L139.29-1.51Q139.29-1.22 139.19-0.98 139.1-0.73 139-0.49L139-0.49Q138.32-0.39 138.17-0.51 138.02-0.63 137.83-0.73L137.83-0.73Q137.58-0.73 137.51-0.54 137.44-0.34 137.19-0.24L137.19-0.24Q137-0.29 136.78-0.27 136.56-0.24 136.41-0.34L136.41-0.34Q136.02-0.2 135.7 0 135.39 0.2 134.99 0.29L134.99 0.29Q134.26 0.2 134.09 0.22 133.92 0.24 133.73 0.29L133.73 0.29Q133.38-0.05 133.41-0.56 133.43-1.07 133.14-1.46L133.14-1.46Q133.14-1.95 133.04-2.08 132.94-2.2 132.94-2.29L132.94-2.29Q132.94-2.44 132.97-2.61 132.99-2.78 132.99-2.98L132.99-2.98Q132.99-3.42 132.94-3.66L132.94-3.66Q132.99-3.96 133.04-4.57 133.09-5.18 133.14-5.83 133.19-6.49 133.19-7.13 133.19-7.76 133.19-8.15L133.19-8.15Q133.19-8.4 133.29-8.57 133.38-8.74 133.38-8.98L133.38-8.98Q133.38-9.38 133.36-9.69 133.33-10.01 133.33-10.35L133.33-10.35Q133.33-11.04 133.36-11.72 133.38-12.4 133.38-13.09L133.38-13.09Q133.38-15.19 133.16-17.21 132.94-19.24 132.94-21.29L132.94-21.29Q132.94-22.41 132.85-23.75 132.75-25.1 132.6-26.22L132.6-26.22Q132.6-26.46 132.53-26.64 132.46-26.81 132.46-27L132.46-27Q132.41-27.59 132.41-28.2 132.41-28.81 132.41-29.44L132.41-29.44Q132.41-29.83 132.41-30.54 132.41-31.25 132.41-32.01 132.41-32.76 132.43-33.45 132.46-34.13 132.5-34.42L132.5-34.42Q132.5-34.47 132.8-34.59 133.09-34.72 133.19-34.72L133.19-34.72Q133.43-34.72 133.58-34.57 133.73-34.42 133.92-34.28L133.92-34.28Q134.12-34.42 134.34-34.42 134.56-34.42 134.8-34.42L134.8-34.42Q135.53-34.57 135.7-34.4 135.87-34.23 135.97-34.23L135.97-34.23Q136.12-34.23 136.22-34.38 136.31-34.52 136.46-34.52L136.46-34.52Q136.85-34.52 136.92-34.33 137-34.13 137.19-34.13L137.19-34.13Q137.39-34.13 137.49-34.28 137.58-34.42 137.68-34.42L137.68-34.42Q137.83-34.42 137.97-34.35 138.12-34.28 138.27-34.28L138.27-34.28Q138.51-34.28 138.8-34.45 139.1-34.62 139.34-34.72L139.34-34.72Q139.73-34.81 140.05-34.96 140.37-35.11 140.71-35.21L140.71-35.21Q141.44-35.64 141.81-35.77 142.17-35.89 142.56-36.08L142.56-36.08Q143.39-36.47 144.15-36.84 144.91-37.21 145.74-37.55L145.74-37.55Q146.18-37.55 146.32-37.74L146.32-37.74Q146.66-37.6 147.2-37.7L147.2-37.7Q147.79-37.16 147.96-36.87 148.13-36.57 148.37-36.33L148.37-36.33Q148.67-35.94 148.76-35.94L148.76-35.94Q148.76-35.79 148.62-35.6 148.47-35.4 148.47-35.25ZM174.1-34.57L174.1-34.57Q173.57-33.59 172.88-32.28 172.2-30.96 171.81-29.98L171.81-29.98Q171.66-29.64 171.54-29.32 171.42-29 171.27-28.66L171.27-28.66Q171.03-27.93 170.66-27.27 170.3-26.61 170-25.88L170-25.88Q169.56-24.9 169.1-23.9 168.63-22.9 168.2-21.83L168.2-21.83Q167.71-20.85 167.44-20.14 167.17-19.43 166.88-18.7 166.58-17.97 166.36-17.26 166.14-16.55 166-15.97L166-15.97Q165.56-15.19 165.27-14.79L165.27-14.79Q165.17-13.92 165.07-13.04 164.97-12.16 164.97-11.23L164.97-11.23Q164.97-10.79 165.05-10.38 165.12-9.96 165.17-9.52L165.17-9.52Q165.22-8.89 165.19-8.28 165.17-7.67 165.22-7.03L165.22-7.03Q165.27-5.81 165.34-4.61 165.41-3.42 165.46-2.15L165.46-2.15Q165.51-1.27 165.39-0.66 165.27-0.05 165.31 0.59L165.31 0.59Q165.17 0.68 165 0.73 164.83 0.78 164.68 0.88L164.68 0.88Q164.14 0.88 163.97 0.85 163.8 0.83 163.65 0.93L163.65 0.93Q163.21 0.63 163.17 0.66 163.12 0.68 163.07 0.68L163.07 0.68Q162.48 0.49 162.43 0.39 162.38 0.29 162.24 0.2L162.24 0.2Q161.7 0.2 161.36 0.34L161.36 0.34Q161.21 0.24 161.12 0.15 161.02 0.05 160.87-0.05L160.87-0.05Q160.43-0.1 160.14-0.17 159.85-0.24 159.65-0.34L159.65-0.34Q159.5-0.73 159.33-1.03 159.16-1.32 159.16-1.81L159.16-1.81Q159.16-2.2 159.26-2.54 159.36-2.88 159.41-3.27L159.41-3.27Q159.41-3.52 159.38-3.71 159.36-3.91 159.36-4.15L159.36-4.15Q159.36-4.39 159.46-4.79L159.46-4.79Q159.31-5.91 159.33-7.15 159.36-8.4 159.36-9.52L159.36-9.52Q159.36-10.64 159.16-11.62L159.16-11.62Q159.21-12.26 159.16-12.52 159.11-12.79 159.11-13.09L159.11-13.09Q159.11-13.33 159.16-13.6 159.21-13.87 159.21-14.11L159.21-14.11Q159.21-14.16 159.14-14.62 159.06-15.09 158.97-15.6 158.87-16.11 158.77-16.58 158.67-17.04 158.67-17.14L158.67-17.14Q158.19-18.02 157.94-18.8 157.7-19.58 157.4-20.12L157.4-20.12Q157.21-20.51 157.01-20.9 156.82-21.29 156.67-21.73L156.67-21.73Q156.57-21.97 156.5-22.27 156.43-22.56 156.33-22.8L156.33-22.8Q156.13-23.19 155.96-23.66 155.79-24.12 155.55-24.41L155.55-24.41Q155.35-24.85 155.18-25.22 155.01-25.59 155.01-25.93L155.01-25.93Q154.87-26.51 154.55-26.98 154.23-27.44 153.99-27.93L153.99-27.93Q153.84-28.22 153.77-28.47 153.69-28.71 153.6-28.96L153.6-28.96Q153.5-29.15 153.33-29.44 153.16-29.74 152.96-29.88L152.96-29.88Q152.86-30.32 152.62-30.66 152.38-31.01 152.28-31.45L152.28-31.45Q152.03-31.79 151.74-32.13L151.74-32.13Q151.55-32.86 151.2-33.47 150.86-34.08 150.57-34.77L150.57-34.77Q150.76-35.79 151.69-36.04L151.69-36.04Q152.18-36.62 152.28-36.67 152.38-36.72 152.72-36.72L152.72-36.72Q153.01-36.96 153.3-37.13 153.6-37.3 153.99-37.21L153.99-37.21Q154.04-37.4 154.25-37.55 154.47-37.7 154.67-37.7L154.67-37.7Q154.96-37.7 155.18-37.4 155.4-37.11 155.65-36.96L155.65-36.96Q156.04-36.28 156.45-35.64 156.87-35.01 157.16-34.33L157.16-34.33Q157.5-33.64 157.77-32.96 158.04-32.28 158.58-31.64L158.58-31.64Q158.82-30.66 159.33-29.81 159.85-28.96 160.19-27.98L160.19-27.98Q160.43-27.39 160.75-26.83 161.07-26.27 161.31-25.63L161.31-25.63Q161.46-25.34 161.55-25.05 161.65-24.76 161.75-24.46L161.75-24.46Q161.85-24.22 161.95-23.83 162.04-23.44 162.19-23.19L162.19-23.19Q162.53-23.54 162.78-24.07L162.78-24.07Q163.12-24.76 163.48-25.37 163.85-25.98 164.14-26.66L164.14-26.66Q164.53-27.29 164.7-27.98 164.88-28.66 165.12-29.35L165.12-29.35Q165.22-29.59 165.34-29.83 165.46-30.08 165.56-30.37L165.56-30.37Q165.71-30.66 165.8-30.96 165.9-31.25 166-31.54L166-31.54Q166.34-32.47 166.75-33.37 167.17-34.28 167.61-35.21L167.61-35.21Q167.66-35.35 167.83-35.64 168-35.94 168.22-36.25 168.44-36.57 168.63-36.82 168.83-37.06 168.98-37.16L168.98-37.16Q169.07-37.26 169.29-37.28 169.51-37.3 169.66-37.35L169.66-37.35Q170.1-37.35 170.3-37.11L170.3-37.11Q170.88-36.87 171.17-36.77 171.47-36.67 171.61-36.33L171.61-36.33Q172.35-35.84 172.71-35.77 173.08-35.69 173.27-35.35L173.27-35.35Q173.81-35.01 173.91-34.86 174.01-34.72 174.1-34.57Z" opacity="1" transform="matrix(1,0,0,1,0,0)" fill="#6b64e7" class="wordmark-text-0" data-fill-palette-color="primary" id="text-0"></path></svg></g></svg></g></svg></g></svg></g><g><svg viewBox="0 0 91.9085304288984 91.9085306516872" height="91.9085306516872" width="91.9085304288984"><g><svg xmlns="http://www.w3.org/2000/svg" xmlns:xlink="http://www.w3.org/1999/xlink" version="1.2" baseProfile="tiny" x="0" y="0" viewBox="-8.087953881959446e-8 0 100.00000008087954 100.0000003232823" xml:space="preserve" id="icon-0" width="91.9085304288984" height="91.9085306516872" class="icon-icon-0" data-fill-palette-color="accent"><path d="M100 39.332C100 36 97.364 33.303 94.065 33.163 94.069 33.151 94.069 33.139 94.074 33.128H65.461L55.863 4.341 55.849 4.342C55.058 1.833 52.738 0 49.967 0 47.029 0 44.583 2.048 43.944 4.789 43.937 4.788 43.929 4.789 43.923 4.787L34.473 33.128H6.336C6.288 33.127 6.244 33.114 6.197 33.114A6.195 6.195 0 0 0 0 39.31C0 41.194 0.857 42.86 2.185 43.997 2.178 44.007 2.174 44.018 2.166 44.028L26.24 62.535 17.279 91.218A6.15 6.15 0 0 0 16.697 93.805 6.196 6.196 0 0 0 22.895 100 6.15 6.15 0 0 0 26.622 98.728C26.633 98.738 26.647 98.745 26.658 98.754L50.027 80.84 72.563 98.157A6.196 6.196 0 0 0 83.168 93.805C83.168 93.057 83.014 92.349 82.771 91.684 82.787 91.682 82.8 91.674 82.816 91.672L73.739 62.656 97.457 44.324 97.45 44.319C98.988 43.192 100 41.386 100 39.332" fill="#6250fe" data-fill-palette-color="accent"></path></svg></g></svg></g></svg></g><defs></defs></svg><rect width="395.5199999999999" height="71.69196144636078" fill="none" stroke="none" visibility="hidden"></rect></g></svg></g></svg>